PathFileType	4	(X/Y/Z)	C:/Users/beibeiliu/ov580/test_trc/User1\sequence.14_training_dense_left.trc
DataRate	CameraRate	NumFrames	NumMarkers	Units	OrigDataRate	OrigDataStartFrame	OrigNumFrames
120	120	10	19	mm	120	1	50
Frame#	Time	ThumbCMC			ThumbMCP			ThumbIP			ThumbTip			IndexMCP			IndexPIP			IndexTip			MiddleMCP			MiddlePIP			MiddleTip			RingMCP			RingPIP			RingTip			PinkyMCP			PinkyPIP			PinkyTip			BackHand1			BackHand2			BackHand3	
		X0	Y0	Z0	X1	Y1	Z1	X2	Y2	Z2	X3	Y3	Z3	X4	Y4	Z4	X5	Y5	Z5	X6	Y6	Z6	X7	Y7	Z7	X8	Y8	Z8	X9	Y9	Z9	X10	Y10	Z10	X11	Y11	Z11	X12	Y12	Z12	X13	Y13	Z13	X14	Y14	Z14	X15	Y15	Z15	X16	Y16	Z16	X17	Y17	Z17	X18	Y18	Z18	
0	0	-109.187	12.7645	135.094	-84.5716	0.278326	116.095	-65.3203	-3.45455	94.3058	-51.9166	-13.3223	71.3251	-114.123	22.1624	46.9591	-104.936	14.8526	21.2558	-95.5257	-2.89017	-5.65312	-138.567	17.631	34.4631	-133.161	11.5343	5.44233	-127.26	-1.90366	-22.668	-158.176	3.86066	35.0383	-155.97	-0.694149	11.0351	-151.707	-11.3558	-13.0327	-182.621	-17.4726	51.0586	-183.377	-22.9535	34.1088	-181.35	-24.4503	7.19832	-171.38	14.6179	91.4678	-180.697	14.8363	129.353	-145.168	28.8127	114.83	
1	0.00833333	-110.046	13.6383	133.805	-83.3044	5.32004	118.522	-67.1692	2.0761	98.2233	-46.3372	-4.28513	80.0315	-115.915	29.014	47.4289	-108.963	25.7523	18.1724	-102.813	14.4763	-8.9897	-139.85	26.7646	34.0661	-136.929	25.3016	9.78272	-134.589	17.1205	-23.2308	-165.889	13.2047	38.3858	-160.054	13.8175	12.5459	-158.728	8.78152	-18.125	-184.197	-7.04481	56.229	-191.69	-11.2291	30.9946	-196.225	-7.27565	11.4498	-173.831	16.9759	96.1046	-179.237	19.5104	128.366	-142.999	30.5378	114.872	
2	0.0166667	-110.598	12.0186	135.767	-85.77	3.79496	122.127	-61.4486	2.64626	100.116	-46.6171	-3.65419	89.0035	-111.076	30.6158	45.2142	-111.15	28.5026	21.1665	-103.757	24.2165	-4.77707	-143.455	28.7023	37.8841	-138.917	29.1604	9.59616	-135.814	26.3357	-20.5122	-162.9	18.3526	41.974	-163.115	19.5521	9.53746	-164.754	17.7468	-15.7437	-188.794	-1.92802	56.462	-196.288	-3.91022	35.4923	-200.886	1.81144	14.209	-174.458	19.5592	95.8313	-177.714	20.0236	128.4	-144.015	29.4665	117.312	
3	0.025	-106.809	9.91907	131.634	-85.7865	-0.574706	118.958	-64.1073	-3.26502	101.554	-46.1972	-9.23351	92.2817	-114.042	25.1215	44.8205	-107.501	26.0726	18.0849	-110.733	20.1447	-4.94248	-141.604	25.8012	39.1134	-140.117	26.7182	7.2999	-140.432	24.2937	-21.5303	-163.205	16.817	39.2829	-165.424	18.3024	11.2145	-164.86	18.2692	-9.91993	-185.617	-1.3994	57.7561	-194.61	0.314745	36.7426	-204.625	8.25209	18.5277	-171.958	17.8129	92.809	-180.886	19.2348	126.208	-141.355	27.7534	113.85	
4	0.0333333	-112.509	2.79027	132.668	-85.4352	-7.51933	116.621	-64.0347	-12.2512	102.728	-45.4511	-19.2192	90.9907	-111.972	19.7873	47.0039	-110.217	19.8422	21.5793	-107.596	16.9728	-5.12251	-139.56	24.578	32.8122	-138.02	23.9783	4.44265	-139.718	23.4237	-20.4752	-168.746	14.4381	39.4216	-165.448	19.649	9.79055	-168.369	19.4688	-14.8749	-193.457	-0.976558	56.2613	-195.428	2.89879	38.1963	-206.714	13.9631	19.9451	-173.026	18.6413	92.5717	-174.615	21.1212	124.972	-141.048	23.4726	112.176	
5	0.0416667	-113.14	-2.02786	127.246	-89.7795	-14.2881	115.555	-68.4057	-20.2179	96.7938	-48.444	-27.9723	90.0304	-112.898	11.9982	46.2665	-114.207	11.3762	15.6225	-110.366	9.46644	-6.58824	-144.979	17.7328	31.8495	-140.641	19.1058	5.8681	-144.646	18.3213	-23.1724	-171.293	12.2289	38.6488	-170.555	17.0913	9.16577	-172.176	17.3251	-12.8647	-193.761	0.0747752	56.4053	-197.909	3.14685	39.8962	-208.479	13.5197	19.2986	-171.371	15.9365	94.9324	-178.012	18.8493	124.906	-138.799	19.5345	112.081	
6	0.05	-115.736	9.03572	126.838	-90.2402	0.0867409	114.693	-72.9676	-5.18253	99.6247	-52.4927	-7.98469	88.8082	-121.869	15.1764	38.762	-116.375	13.7783	18.0111	-117.152	9.44813	-9.10856	-151.031	14.7218	28.6979	-145.47	15.2213	5.46595	-146.678	13.4414	-27.5254	-170.404	6.36606	38.8246	-172.84	8.45585	9.40346	-171.438	9.56703	-19.1338	-196.589	-10.3566	54.5627	-201.955	-7.2991	32.5456	-208.769	0.919526	13.7389	-175.948	10.523	92.2968	-186.921	16.1854	122.669	-150.251	24.4364	109.538	
7	0.0583333	-130.719	38.5173	127.108	-102.688	39.7285	113.65	-80.5658	44.974	92.8454	-61.2402	47.589	84.6827	-130.325	29.0188	35.8533	-122.545	25.1676	9.72074	-121.669	16.2543	-11.7799	-152.497	13.6639	25.141	-147.448	10.9753	0.947245	-140.672	6.39384	-32.7263	-167.629	-1.41712	34.8653	-169.197	-6.60492	6.07799	-165.164	-9.42825	-18.1351	-184.025	-25.2628	51.1058	-184.973	-26.9599	34.1872	-192.358	-25.9625	7.10156	-183.908	2.93849	87.3018	-193.994	10.3576	115.028	-163.353	35.7953	102.033	
8	0.0666667	-157.165	61.5947	113.795	-134.254	76.4326	99.3446	-117.739	84.7745	81.143	-99.4438	96.4931	65.8799	-142.238	37.1136	31.9393	-130.956	30.6838	4.46515	-119.351	24.7051	-18.5934	-149.354	11.3688	25.8916	-138.423	3.01326	-2.76624	-126.945	-2.1559	-28.231	-153.279	-10.782	34.3921	-147.117	-18.2763	9.49765	-136.778	-20.7467	-16.3295	-154.905	-32.8251	61.5001	-151.426	-38.1694	41.556	-152.271	-46.8218	15.6902	-174.88	-2.14335	84.5871	-192.847	0.445175	114.582	-178.761	34.0901	94.5752	
9	0.075	-183.665	59.433	102.76	-172.251	86.9255	84.3976	-161.177	100.26	66.1279	-145.881	110.914	52.3319	-149.891	33.4339	24.6744	-137.186	26.046	5.27486	-122.466	19.9028	-17.7654	-142.474	6.54165	22.7991	-128.638	2.54489	-0.0932725	-111.083	-4.07382	-22.687	-135.955	-10.9305	36.0932	-123.385	-21.9332	18.1346	-108.629	-24.3421	-4.99175	-130.468	-24.2817	67.7687	-118.006	-36.499	50.0682	-111.348	-44.812	29.1838	-165.919	-10.0002	86.3259	-184.775	-8.40954	110.253	-187.978	24.8227	88.0663	
